<svg width="97" height="25" viewBox="0 0 97 25" fill="none" xmlns="http://www.w3.org/2000/svg">
<path d="M0.661531 4.824C0.757531 3.336 1.32553 2.176 2.36553 1.344C3.42153 0.511999 4.76553 0.0959988 6.39753 0.0959988C7.51753 0.0959988 8.48553 0.295999 9.30153 0.696C10.1175 1.096 10.7335 1.64 11.1495 2.328C11.5655 3.016 11.7735 3.792 11.7735 4.656C11.7735 5.648 11.5095 6.496 10.9815 7.2C10.4535 7.904 9.82153 8.376 9.08553 8.616V8.712C10.0295 9 10.7655 9.528 11.2935 10.296C11.8215 11.048 12.0855 12.016 12.0855 13.2C12.0855 14.144 11.8695 14.984 11.4375 15.72C11.0055 16.456 10.3655 17.04 9.51753 17.472C8.66953 17.888 7.65353 18.096 6.46953 18.096C4.74153 18.096 3.31753 17.656 2.19753 16.776C1.09353 15.88 0.501531 14.6 0.421531 12.936H3.06153C3.12553 13.784 3.45353 14.48 4.04553 15.024C4.63753 15.552 5.43753 15.816 6.44553 15.816C7.42153 15.816 8.17353 15.552 8.70153 15.024C9.22953 14.48 9.49353 13.784 9.49353 12.936C9.49353 11.816 9.13353 11.024 8.41353 10.56C7.70953 10.08 6.62153 9.84 5.14953 9.84H4.52553V7.584H5.17353C6.46953 7.568 7.45353 7.352 8.12553 6.936C8.81353 6.52 9.15753 5.864 9.15753 4.968C9.15753 4.2 8.90953 3.592 8.41353 3.144C7.91753 2.68 7.21353 2.448 6.30153 2.448C5.40553 2.448 4.70953 2.68 4.21353 3.144C3.71753 3.592 3.42153 4.152 3.32553 4.824H0.661531ZM18.0555 0.24V18H15.3195V0.24H18.0555ZM33.7677 11.064C33.7677 11.56 33.7357 12.008 33.6717 12.408H23.5677C23.6477 13.464 24.0397 14.312 24.7437 14.952C25.4477 15.592 26.3117 15.912 27.3357 15.912C28.8077 15.912 29.8477 15.296 30.4557 14.064H33.4077C33.0077 15.28 32.2797 16.28 31.2237 17.064C30.1837 17.832 28.8877 18.216 27.3357 18.216C26.0717 18.216 24.9357 17.936 23.9277 17.376C22.9357 16.8 22.1517 16 21.5757 14.976C21.0157 13.936 20.7357 12.736 20.7357 11.376C20.7357 10.016 21.0077 8.824 21.5517 7.8C22.1117 6.76 22.8877 5.96 23.8797 5.4C24.8877 4.84 26.0397 4.56 27.3357 4.56C28.5837 4.56 29.6957 4.832 30.6717 5.376C31.6477 5.92 32.4077 6.688 32.9517 7.68C33.4957 8.656 33.7677 9.784 33.7677 11.064ZM30.9117 10.2C30.8957 9.192 30.5357 8.384 29.8317 7.776C29.1277 7.168 28.2557 6.864 27.2157 6.864C26.2717 6.864 25.4637 7.168 24.7917 7.776C24.1197 8.368 23.7197 9.176 23.5917 10.2H30.9117ZM41.7882 4.56C42.8122 4.56 43.7162 4.768 44.5002 5.184C45.3002 5.584 45.9242 6.088 46.3722 6.696V4.776H49.1322V18.216C49.1322 19.432 48.8762 20.512 48.3642 21.456C47.8522 22.416 47.1082 23.168 46.1322 23.712C45.1722 24.256 44.0202 24.528 42.6762 24.528C40.8842 24.528 39.3962 24.104 38.2122 23.256C37.0282 22.424 36.3562 21.288 36.1962 19.848H38.9082C39.1162 20.536 39.5562 21.088 40.2282 21.504C40.9162 21.936 41.7322 22.152 42.6762 22.152C43.7802 22.152 44.6682 21.816 45.3402 21.144C46.0282 20.472 46.3722 19.496 46.3722 18.216V16.008C45.9082 16.632 45.2762 17.16 44.4762 17.592C43.6922 18.008 42.7962 18.216 41.7882 18.216C40.6362 18.216 39.5802 17.928 38.6202 17.352C37.6762 16.76 36.9242 15.944 36.3642 14.904C35.8202 13.848 35.5482 12.656 35.5482 11.328C35.5482 10 35.8202 8.824 36.3642 7.8C36.9242 6.776 37.6762 5.984 38.6202 5.424C39.5802 4.848 40.6362 4.56 41.7882 4.56ZM46.3722 11.376C46.3722 10.464 46.1802 9.672 45.7962 9C45.4282 8.328 44.9402 7.816 44.3322 7.464C43.7242 7.112 43.0682 6.936 42.3642 6.936C41.6602 6.936 41.0042 7.112 40.3962 7.464C39.7882 7.8 39.2922 8.304 38.9082 8.976C38.5402 9.632 38.3562 10.416 38.3562 11.328C38.3562 12.24 38.5402 13.04 38.9082 13.728C39.2922 14.416 39.7882 14.944 40.3962 15.312C41.0202 15.664 41.6762 15.84 42.3642 15.84C43.0682 15.84 43.7242 15.664 44.3322 15.312C44.9402 14.96 45.4282 14.448 45.7962 13.776C46.1802 13.088 46.3722 12.288 46.3722 11.376ZM51.8138 11.328C51.8138 10 52.0858 8.824 52.6298 7.8C53.1898 6.776 53.9418 5.984 54.8858 5.424C55.8458 4.848 56.9018 4.56 58.0538 4.56C59.0938 4.56 59.9978 4.768 60.7658 5.184C61.5498 5.584 62.1738 6.088 62.6378 6.696V4.776H65.3978V18H62.6378V16.032C62.1738 16.656 61.5418 17.176 60.7418 17.592C59.9418 18.008 59.0298 18.216 58.0058 18.216C56.8698 18.216 55.8298 17.928 54.8858 17.352C53.9418 16.76 53.1898 15.944 52.6298 14.904C52.0858 13.848 51.8138 12.656 51.8138 11.328ZM62.6378 11.376C62.6378 10.464 62.4458 9.672 62.0618 9C61.6938 8.328 61.2058 7.816 60.5978 7.464C59.9898 7.112 59.3338 6.936 58.6298 6.936C57.9258 6.936 57.2698 7.112 56.6618 7.464C56.0538 7.8 55.5578 8.304 55.1738 8.976C54.8058 9.632 54.6218 10.416 54.6218 11.328C54.6218 12.24 54.8058 13.04 55.1738 13.728C55.5578 14.416 56.0538 14.944 56.6618 15.312C57.2858 15.664 57.9418 15.84 58.6298 15.84C59.3338 15.84 59.9898 15.664 60.5978 15.312C61.2058 14.96 61.6938 14.448 62.0618 13.776C62.4458 13.088 62.6378 12.288 62.6378 11.376ZM75.6634 4.56C76.7034 4.56 77.6314 4.776 78.4474 5.208C79.2794 5.64 79.9274 6.28 80.3914 7.128C80.8554 7.976 81.0874 9 81.0874 10.2V18H78.3754V10.608C78.3754 9.424 78.0794 8.52 77.4874 7.896C76.8954 7.256 76.0874 6.936 75.0634 6.936C74.0394 6.936 73.2234 7.256 72.6154 7.896C72.0234 8.52 71.7274 9.424 71.7274 10.608V18H68.9914V4.776H71.7274V6.288C72.1754 5.744 72.7434 5.32 73.4314 5.016C74.1354 4.712 74.8794 4.56 75.6634 4.56ZM87.7693 7.008V14.328C87.7693 14.824 87.8813 15.184 88.1053 15.408C88.3453 15.616 88.7453 15.72 89.3053 15.72H90.9853V18H88.8253C87.5933 18 86.6493 17.712 85.9933 17.136C85.3373 16.56 85.0093 15.624 85.0093 14.328V7.008H83.4493V4.776H85.0093V1.488H87.7693V4.776H90.9853V7.008H87.7693Z" fill="black"/>
<path d="M94.611 18.168C94.115 18.168 93.699 18 93.363 17.664C93.027 17.328 92.859 16.912 92.859 16.416C92.859 15.92 93.027 15.504 93.363 15.168C93.699 14.832 94.115 14.664 94.611 14.664C95.091 14.664 95.499 14.832 95.835 15.168C96.171 15.504 96.339 15.92 96.339 16.416C96.339 16.912 96.171 17.328 95.835 17.664C95.499 18 95.091 18.168 94.611 18.168Z" fill="#6C7275"/>
</svg>
