<svg width="22" height="22" viewBox="0 0 22 22" fill="none" xmlns="http://www.w3.org/2000/svg">
<path d="M0.5 2C0.5 1.60218 0.658035 1.22064 0.93934 0.93934C1.22064 0.658035 1.60218 0.5 2 0.5H5C5.39782 0.5 5.77936 0.658035 6.06066 0.93934C6.34196 1.22064 6.5 1.60218 6.5 2V5C6.5 5.39782 6.34196 5.77936 6.06066 6.06066C5.77936 6.34196 5.39782 6.5 5 6.5H2C1.60218 6.5 1.22064 6.34196 0.93934 6.06066C0.658035 5.77936 0.5 5.39782 0.5 5V2ZM8 2C8 1.60218 8.15804 1.22064 8.43934 0.93934C8.72064 0.658035 9.10218 0.5 9.5 0.5H12.5C12.8978 0.5 13.2794 0.658035 13.5607 0.93934C13.842 1.22064 14 1.60218 14 2V5C14 5.39782 13.842 5.77936 13.5607 6.06066C13.2794 6.34196 12.8978 6.5 12.5 6.5H9.5C9.10218 6.5 8.72064 6.34196 8.43934 6.06066C8.15804 5.77936 8 5.39782 8 5V2ZM15.5 2C15.5 1.60218 15.658 1.22064 15.9393 0.93934C16.2206 0.658035 16.6022 0.5 17 0.5H20C20.3978 0.5 20.7794 0.658035 21.0607 0.93934C21.342 1.22064 21.5 1.60218 21.5 2V5C21.5 5.39782 21.342 5.77936 21.0607 6.06066C20.7794 6.34196 20.3978 6.5 20 6.5H17C16.6022 6.5 16.2206 6.34196 15.9393 6.06066C15.658 5.77936 15.5 5.39782 15.5 5V2ZM0.5 9.5C0.5 9.10218 0.658035 8.72064 0.93934 8.43934C1.22064 8.15804 1.60218 8 2 8H5C5.39782 8 5.77936 8.15804 6.06066 8.43934C6.34196 8.72064 6.5 9.10218 6.5 9.5V12.5C6.5 12.8978 6.34196 13.2794 6.06066 13.5607C5.77936 13.842 5.39782 14 5 14H2C1.60218 14 1.22064 13.842 0.93934 13.5607C0.658035 13.2794 0.5 12.8978 0.5 12.5V9.5ZM8 9.5C8 9.10218 8.15804 8.72064 8.43934 8.43934C8.72064 8.15804 9.10218 8 9.5 8H12.5C12.8978 8 13.2794 8.15804 13.5607 8.43934C13.842 8.72064 14 9.10218 14 9.5V12.5C14 12.8978 13.842 13.2794 13.5607 13.5607C13.2794 13.842 12.8978 14 12.5 14H9.5C9.10218 14 8.72064 13.842 8.43934 13.5607C8.15804 13.2794 8 12.8978 8 12.5V9.5ZM15.5 9.5C15.5 9.10218 15.658 8.72064 15.9393 8.43934C16.2206 8.15804 16.6022 8 17 8H20C20.3978 8 20.7794 8.15804 21.0607 8.43934C21.342 8.72064 21.5 9.10218 21.5 9.5V12.5C21.5 12.8978 21.342 13.2794 21.0607 13.5607C20.7794 13.842 20.3978 14 20 14H17C16.6022 14 16.2206 13.842 15.9393 13.5607C15.658 13.2794 15.5 12.8978 15.5 12.5V9.5ZM0.5 17C0.5 16.6022 0.658035 16.2206 0.93934 15.9393C1.22064 15.658 1.60218 15.5 2 15.5H5C5.39782 15.5 5.77936 15.658 6.06066 15.9393C6.34196 16.2206 6.5 16.6022 6.5 17V20C6.5 20.3978 6.34196 20.7794 6.06066 21.0607C5.77936 21.342 5.39782 21.5 5 21.5H2C1.60218 21.5 1.22064 21.342 0.93934 21.0607C0.658035 20.7794 0.5 20.3978 0.5 20V17ZM8 17C8 16.6022 8.15804 16.2206 8.43934 15.9393C8.72064 15.658 9.10218 15.5 9.5 15.5H12.5C12.8978 15.5 13.2794 15.658 13.5607 15.9393C13.842 16.2206 14 16.6022 14 17V20C14 20.3978 13.842 20.7794 13.5607 21.0607C13.2794 21.342 12.8978 21.5 12.5 21.5H9.5C9.10218 21.5 8.72064 21.342 8.43934 21.0607C8.15804 20.7794 8 20.3978 8 20V17ZM15.5 17C15.5 16.6022 15.658 16.2206 15.9393 15.9393C16.2206 15.658 16.6022 15.5 17 15.5H20C20.3978 15.5 20.7794 15.658 21.0607 15.9393C21.342 16.2206 21.5 16.6022 21.5 17V20C21.5 20.3978 21.342 20.7794 21.0607 21.0607C20.7794 21.342 20.3978 21.5 20 21.5H17C16.6022 21.5 16.2206 21.342 15.9393 21.0607C15.658 20.7794 15.5 20.3978 15.5 20V17Z" fill="#141718"/>
</svg>
