<svg width="51" height="27" viewBox="0 0 51 27" fill="none" xmlns="http://www.w3.org/2000/svg">
<path d="M2 19.5H14M9.18961 9.04114C9.18961 9.04114 9.18961 10.1309 10.2794 11.2206C11.3691 12.3104 12.4589 12.3104 12.4589 12.3104M4.87975 17.492L7.16823 17.1651C7.49833 17.118 7.80424 16.965 8.04003 16.7292L13.5486 11.2206C14.1505 10.6188 14.1505 9.64299 13.5486 9.04114L12.4589 7.95139C11.857 7.34954 10.8812 7.34954 10.2794 7.95139L4.77078 13.46C4.53499 13.6958 4.38203 14.0017 4.33488 14.3318L4.00795 16.6202C3.9353 17.1288 4.3712 17.5647 4.87975 17.492Z" stroke="#6C7275" stroke-width="1.5" stroke-linecap="round"/>
<path d="M21.1477 19.5V7.86364H28.7159V9.63068H23.2557V12.7898H28.3239V14.5568H23.2557V17.733H28.7614V19.5H21.1477ZM34.0142 19.6534C33.3286 19.6534 32.715 19.4773 32.1733 19.125C31.6316 18.7727 31.2036 18.2614 30.8892 17.5909C30.5748 16.9205 30.4176 16.1061 30.4176 15.1477C30.4176 14.178 30.5767 13.3598 30.8949 12.6932C31.2169 12.0227 31.6506 11.517 32.196 11.1761C32.7415 10.8314 33.3494 10.6591 34.0199 10.6591C34.5313 10.6591 34.9517 10.7462 35.2812 10.9205C35.6108 11.0909 35.8722 11.2973 36.0653 11.5398C36.2585 11.7784 36.4081 12.0038 36.5142 12.2159H36.5994V7.86364H38.6619V19.5H36.6392V18.125H36.5142C36.4081 18.3371 36.2547 18.5625 36.054 18.8011C35.8532 19.036 35.5881 19.2367 35.2585 19.4034C34.929 19.5701 34.5142 19.6534 34.0142 19.6534ZM34.5881 17.9659C35.0237 17.9659 35.3949 17.8485 35.7017 17.6136C36.0085 17.375 36.2415 17.0436 36.4006 16.6193C36.5597 16.1951 36.6392 15.7008 36.6392 15.1364C36.6392 14.572 36.5597 14.0814 36.4006 13.6648C36.2453 13.2481 36.0142 12.9242 35.7074 12.6932C35.4044 12.4621 35.0313 12.3466 34.5881 12.3466C34.1297 12.3466 33.7472 12.4659 33.4403 12.7045C33.1335 12.9432 32.9025 13.2727 32.7472 13.6932C32.5919 14.1136 32.5142 14.5947 32.5142 15.1364C32.5142 15.6818 32.5919 16.1686 32.7472 16.5966C32.9063 17.0208 33.1392 17.3561 33.446 17.6023C33.7566 17.8447 34.1373 17.9659 34.5881 17.9659ZM40.8537 19.5V10.7727H42.9105V19.5H40.8537ZM41.8878 9.53409C41.562 9.53409 41.2817 9.42614 41.0469 9.21023C40.812 8.99053 40.6946 8.72727 40.6946 8.42045C40.6946 8.10985 40.812 7.84659 41.0469 7.63068C41.2817 7.41098 41.562 7.30114 41.8878 7.30114C42.2173 7.30114 42.4976 7.41098 42.7287 7.63068C42.9635 7.84659 43.081 8.10985 43.081 8.42045C43.081 8.72727 42.9635 8.99053 42.7287 9.21023C42.4976 9.42614 42.2173 9.53409 41.8878 9.53409ZM49.3835 10.7727V12.3636H44.3665V10.7727H49.3835ZM45.6051 8.68182H47.6619V16.875C47.6619 17.1515 47.7036 17.3636 47.7869 17.5114C47.8741 17.6553 47.9877 17.7538 48.1278 17.8068C48.268 17.8598 48.4233 17.8864 48.5938 17.8864C48.7225 17.8864 48.84 17.8769 48.946 17.858C49.0559 17.839 49.1392 17.822 49.196 17.8068L49.5426 19.4148C49.4328 19.4527 49.2756 19.4943 49.071 19.5398C48.8703 19.5852 48.6241 19.6117 48.3324 19.6193C47.8172 19.6345 47.3532 19.5568 46.9403 19.3864C46.5275 19.2121 46.1998 18.9432 45.9574 18.5795C45.7188 18.2159 45.6013 17.7614 45.6051 17.2159V8.68182Z" fill="#6C7275"/>
</svg>
