<svg width="33" height="32" viewBox="0 0 33 32" fill="none" xmlns="http://www.w3.org/2000/svg">
<path d="M28.5 25.3333V23.1388C28.5 22.0483 27.8361 21.0678 26.8237 20.6628L24.1115 19.5779C22.8238 19.0629 21.3563 19.6208 20.736 20.8613L20.5 21.3333C20.5 21.3333 17.1667 20.6667 14.5 18C11.8333 15.3333 11.1667 12 11.1667 12L11.6387 11.764C12.8792 11.1437 13.4371 9.67618 12.9221 8.38848L11.8372 5.67629C11.4322 4.66387 10.4517 4 9.36125 4H7.16667C5.69391 4 4.5 5.19391 4.5 6.66667C4.5 18.4487 14.0513 28 25.8333 28C27.3061 28 28.5 26.8061 28.5 25.3333Z" stroke="#141718" stroke-width="2.5" stroke-linejoin="round"/>
</svg>
