<svg width="30" height="31" viewBox="0 0 30 31" fill="none" xmlns="http://www.w3.org/2000/svg">
<rect x="0.75" y="1.25" width="28.5" height="28.5" rx="14.25" fill="#141718"/>
<rect x="0.75" y="1.25" width="28.5" height="28.5" rx="14.25" stroke="white" stroke-width="1.5"/>
<path d="M11.2508 11.2226C11.0976 11.4524 11.1597 11.7628 11.3895 11.916C11.6192 12.0692 11.9297 12.0071 12.0829 11.7774L11.2508 11.2226ZM12.6043 10.0937L13.0204 10.3711V10.3711L12.6043 10.0937ZM17.396 10.0937L17.812 9.81638L17.396 10.0937ZM17.9175 11.7774C18.0706 12.0071 18.3811 12.0692 18.6108 11.916C18.8406 11.7628 18.9027 11.4524 18.7495 11.2226L17.9175 11.7774ZM16.5002 16.5C16.5002 17.3284 15.8286 18 15.0002 18V19C16.3809 19 17.5002 17.8807 17.5002 16.5H16.5002ZM15.0002 18C14.1717 18 13.5002 17.3284 13.5002 16.5H12.5002C12.5002 17.8807 13.6195 19 15.0002 19V18ZM13.5002 16.5C13.5002 15.6716 14.1717 15 15.0002 15V14C13.6195 14 12.5002 15.1193 12.5002 16.5H13.5002ZM15.0002 15C15.8286 15 16.5002 15.6716 16.5002 16.5H17.5002C17.5002 15.1193 16.3809 14 15.0002 14V15ZM12.0829 11.7774L13.0204 10.3711L12.1883 9.81638L11.2508 11.2226L12.0829 11.7774ZM13.7137 10H16.2866V9H13.7137V10ZM16.98 10.3711L17.9175 11.7774L18.7495 11.2226L17.812 9.81638L16.98 10.3711ZM16.2866 10C16.5652 10 16.8254 10.1393 16.98 10.3711L17.812 9.81638C17.472 9.30635 16.8996 9 16.2866 9V10ZM13.0204 10.3711C13.1749 10.1393 13.4351 10 13.7137 10V9C13.1008 9 12.5283 9.30635 12.1883 9.81638L13.0204 10.3711ZM11.0002 12H19.0002V11H11.0002V12ZM21.1668 14.1667V18.8333H22.1668V14.1667H21.1668ZM19.0002 21H11.0002V22H19.0002V21ZM8.8335 18.8333V14.1667H7.8335V18.8333H8.8335ZM11.0002 21C9.80355 21 8.8335 20.03 8.8335 18.8333H7.8335C7.8335 20.5822 9.25126 22 11.0002 22V21ZM21.1668 18.8333C21.1668 20.03 20.1968 21 19.0002 21V22C20.7491 22 22.1668 20.5822 22.1668 18.8333H21.1668ZM19.0002 12C20.1968 12 21.1668 12.97 21.1668 14.1667H22.1668C22.1668 12.4178 20.7491 11 19.0002 11V12ZM11.0002 11C9.25126 11 7.8335 12.4178 7.8335 14.1667H8.8335C8.8335 12.97 9.80355 12 11.0002 12V11Z" fill="#FEFEFE"/>
</svg>
