<svg width="22" height="22" viewBox="0 0 22 22" fill="none" xmlns="http://www.w3.org/2000/svg">
<path d="M17.5588 18.5488C16.5654 15.8918 14.0036 14 11 14C7.99638 14 5.4346 15.8918 4.44117 18.5488M17.5588 18.5488C19.6672 16.7154 21 14.0134 21 11C21 5.47715 16.5228 1 11 1C5.47715 1 1 5.47715 1 11C1 14.0134 2.33285 16.7154 4.44117 18.5488M17.5588 18.5488C15.8031 20.0756 13.5095 21 11 21C8.49052 21 6.19694 20.0756 4.44117 18.5488M14 8C14 9.65685 12.6569 11 11 11C9.34315 11 8 9.65685 8 8C8 6.34315 9.34315 5 11 5C12.6569 5 14 6.34315 14 8Z" stroke="#141718" stroke-width="1.5" stroke-linejoin="round"/>
</svg>
