<svg width="33" height="32" viewBox="0 0 33 32" fill="none" xmlns="http://www.w3.org/2000/svg">
<path d="M27.5 16V24C27.5 26.9455 25.1122 29.3333 22.1667 29.3333H11.5C8.55447 29.3333 6.16666 26.9455 6.16666 24V16" stroke="#141718" stroke-width="2.5" stroke-linejoin="round"/>
<path d="M23.1916 2.66797H10.475C8.05185 2.66797 5.87284 4.32764 4.97291 6.8587L3.96226 9.70113C3.65633 10.5616 3.44486 11.4823 3.668 12.3678C4.19646 14.465 5.91096 16.0013 7.94442 16.0013C10.399 16.0013 12.3889 13.7627 12.3889 11.0013C12.3889 13.7627 14.3787 16.0013 16.8333 16.0013C19.2879 16.0013 21.2778 13.7627 21.2778 11.0013C21.2778 13.7627 23.2676 16.0013 25.7222 16.0013C27.7557 16.0013 29.4702 14.465 29.9986 12.3678C30.2218 11.4823 30.0103 10.5616 29.7044 9.70113L28.6937 6.8587C27.7938 4.32764 25.6148 2.66797 23.1916 2.66797Z" stroke="#141718" stroke-width="2.5" stroke-linejoin="round"/>
<path d="M12.8333 25.332C12.8333 23.1229 14.6242 21.332 16.8333 21.332C19.0425 21.332 20.8333 23.1229 20.8333 25.332V29.332H12.8333V25.332Z" stroke="#141718" stroke-width="2.5" stroke-linejoin="round"/>
</svg>
